<svg xmlns="http://www.w3.org/2000/svg" xmlns:xlink="http://www.w3.org/1999/xlink" width="130" zoomAndPan="magnify" viewBox="0 0 97.5 32.999998" height="44" preserveAspectRatio="xMidYMid meet" version="1.0"><defs><g/><clipPath id="a317f21fff"><path d="M 3 3.511719 L 30 3.511719 L 30 29.628906 L 3 29.628906 Z M 3 3.511719 " clip-rule="nonzero"/></clipPath><clipPath id="6a00d81d6e"><path d="M 3 3.511719 L 17 3.511719 L 17 29.628906 L 3 29.628906 Z M 3 3.511719 " clip-rule="nonzero"/></clipPath><clipPath id="75407001fb"><rect x="0" width="63" y="0" height="20"/></clipPath></defs><g clip-path="url(#a317f21fff)"><path fill="#003945" d="M 3.683594 29.628906 L 9.15625 29.628906 C 9.308594 29.628906 9.457031 29.574219 9.578125 29.472656 L 15.753906 24.328125 C 15.996094 24.125 16.351562 24.125 16.597656 24.328125 L 22.773438 29.472656 C 22.890625 29.574219 23.042969 29.628906 23.195312 29.628906 L 28.667969 29.628906 C 29.160156 29.628906 29.480469 29.109375 29.261719 28.671875 L 16.765625 3.683594 C 16.523438 3.195312 15.828125 3.195312 15.582031 3.683594 L 3.089844 28.671875 C 2.871094 29.109375 3.191406 29.628906 3.683594 29.628906 Z M 3.683594 29.628906 " fill-opacity="1" fill-rule="nonzero"/></g><g clip-path="url(#6a00d81d6e)"><path fill="#1f4e79" d="M 16.175781 3.320312 L 16.175781 24.175781 C 16.023438 24.175781 15.875 24.226562 15.753906 24.328125 L 9.578125 29.472656 C 9.457031 29.574219 9.308594 29.628906 9.15625 29.628906 L 3.683594 29.628906 C 3.191406 29.628906 2.871094 29.109375 3.089844 28.671875 L 15.582031 3.683594 C 15.707031 3.441406 15.941406 3.320312 16.175781 3.320312 Z M 16.175781 3.320312 " fill-opacity="1" fill-rule="nonzero"/></g><g transform="matrix(1, 0, 0, 1, 33, 7)"><g clip-path="url(#75407001fb)"><g fill="#ffffff" fill-opacity="1"><g transform="translate(0.989985, 14.874663)"><g><path d="M 4.25 -10.578125 L 5.6875 -10.578125 L 9.78125 0 L 7.390625 0 L 6.765625 -1.75 L 3.171875 -1.75 L 2.5625 0 L 0.15625 0 Z M 6.0625 -3.703125 L 4.96875 -6.765625 L 3.875 -3.703125 Z M 6.0625 -3.703125 "/></g></g></g><g fill="#ffffff" fill-opacity="1"><g transform="translate(12.447135, 14.874663)"><g><path d="M 1.15625 -10.390625 L 3.421875 -10.390625 L 3.421875 -2.125 L 7.015625 -2.125 L 7.015625 0 L 1.15625 0 Z M 1.15625 -10.390625 "/></g></g></g><g fill="#ffffff" fill-opacity="1"><g transform="translate(21.454738, 14.874663)"><g><path d="M 2.921875 0.21875 C 2.253906 0.21875 1.664062 0.0703125 1.15625 -0.21875 C 0.65625 -0.519531 0.269531 -0.929688 0 -1.453125 L 1.640625 -2.84375 C 1.960938 -2.21875 2.382812 -1.90625 2.90625 -1.90625 C 3.300781 -1.90625 3.617188 -2.046875 3.859375 -2.328125 C 4.097656 -2.609375 4.21875 -2.972656 4.21875 -3.421875 L 4.21875 -8.265625 L 1.546875 -8.265625 L 1.546875 -10.390625 L 6.484375 -10.390625 L 6.484375 -3.484375 C 6.484375 -2.941406 6.394531 -2.441406 6.21875 -1.984375 C 6.039062 -1.523438 5.789062 -1.132812 5.46875 -0.8125 C 5.15625 -0.488281 4.78125 -0.234375 4.34375 -0.046875 C 3.914062 0.128906 3.441406 0.21875 2.921875 0.21875 Z M 2.921875 0.21875 "/></g></g></g><g fill="#ffffff" fill-opacity="1"><g transform="translate(30.539858, 14.874663)"><g><path d="M 4.25 -10.578125 L 5.6875 -10.578125 L 9.78125 0 L 7.390625 0 L 6.765625 -1.75 L 3.171875 -1.75 L 2.5625 0 L 0.15625 0 Z M 6.0625 -3.703125 L 4.96875 -6.765625 L 3.875 -3.703125 Z M 6.0625 -3.703125 "/></g></g></g><g fill="#ffffff" fill-opacity="1"><g transform="translate(41.066782, 14.874663)"><g><path d="M 0.078125 -10.390625 L 2.4375 -10.390625 L 4.703125 -4.203125 L 6.984375 -10.390625 L 9.3125 -10.390625 L 5.28125 0.1875 L 4.09375 0.1875 Z M 0.078125 -10.390625 "/></g></g></g><g fill="#ffffff" fill-opacity="1"><g transform="translate(51.051085, 14.874663)"><g><path d="M 4.25 -10.578125 L 5.6875 -10.578125 L 9.78125 0 L 7.390625 0 L 6.765625 -1.75 L 3.171875 -1.75 L 2.5625 0 L 0.15625 0 Z M 6.0625 -3.703125 L 4.96875 -6.765625 L 3.875 -3.703125 Z M 6.0625 -3.703125 "/></g></g></g></g></g></svg>